<?xml version="1.0" encoding="UTF-8"?>
<svg id="Layer_1" xmlns="http://www.w3.org/2000/svg" version="1.1" viewBox="0 0 1920 1080">
  <!-- Generator: Adobe Illustrator 29.6.1, SVG Export Plug-In . SVG Version: 2.1.1 Build 9)  -->
  <defs>
    <style>
      .st0 {
        fill: #596d52;
      }
    </style>
  </defs>
  <path class="st0" d="M482.14,650.38c-14.1,0-26.98-3.24-38.67-9.73-11.55-6.47-20.72-15.19-27.51-26.14-6.79-10.94-10.18-23.14-10.18-36.59l.37-111.01c0-13.22,3.31-25.15,9.91-35.8,6.6-10.76,15.72-19.42,27.32-25.98,11.62-6.53,24.55-9.82,38.77-9.82s27.34,3.2,38.65,9.55c11.43,6.38,20.53,14.99,27.32,25.82,6.79,10.83,10.2,22.89,10.2,36.23v16.31c0,.94-.51,1.41-1.54,1.41h-43.8c-1.01,0-1.52-.47-1.52-1.41v-16.31c0-7.88-2.8-14.66-8.36-20.34-5.59-5.68-12.58-8.5-20.94-8.5-9.27,0-16.38,2.89-21.34,8.68-4.95,5.8-7.43,12.51-7.43,20.16v111.01c0,8.7,2.8,15.8,8.39,21.3,5.57,5.48,12.36,8.23,20.38,8.23s15.35-3.04,20.94-9.11c5.57-6.09,8.36-12.89,8.36-20.43v-16.49c0-.94.51-1.39,1.52-1.39h44.19c1.01,0,1.52.45,1.52,1.39v16.49c0,13.34-3.43,25.49-10.28,36.5-6.99,10.9-16.19,19.6-27.61,26.16-11.43,6.53-24.33,9.8-38.65,9.8Z"/>
  <path class="st0" d="M632.57,646.91h-44.17c-1.03,0-1.52-.58-1.52-1.75l.37-244.47c0-.92.64-1.39,1.91-1.39h43.41c1.28,0,1.91.47,1.91,1.39l-.39,96.78h58.46v-96.78c0-.92.51-1.39,1.52-1.39h43.43c1.25,0,1.89.47,1.89,1.39l.76,244.47c0,1.16-.61,1.75-1.89,1.75h-43.8c-1.28,0-1.91-.58-1.91-1.75v-104.59h-58.46v104.59c0,1.16-.49,1.75-1.52,1.75Z"/>
  <path class="st0" d="M817.67,646.91h-44.19c-1.01,0-1.52-.58-1.52-1.75l.76-244.47c0-.92.51-1.39,1.52-1.39h47.62c1.01,0,1.89.47,2.65,1.39l35.61,46.92,35.44-46.92c.76-.92,1.72-1.39,2.84-1.39h47.8c1.15,0,1.72.47,1.72,1.39l.76,244.47c0,1.16-.51,1.75-1.52,1.75h-44.19c-1.01,0-1.52-.58-1.52-1.75l-.37-181.57-40.95,54.22-40.56-54.22-.37,181.57c0,1.16-.51,1.75-1.52,1.75Z"/>
  <path class="st0" d="M1053.01,646.55l-69.89.36c-1.25,0-1.89-.58-1.89-1.75l.76-244.47c0-.92.49-1.39,1.52-1.39l72.93-.36c14.47-.34,27.54,2.69,39.21,9.04,11.82,6.38,21.24,14.97,28.3,25.8,7.04,10.83,10.54,22.8,10.54,35.89v102.17c0,13.65-3.6,26.18-10.84,37.53-7.36,11.23-17.14,20.18-29.33,26.83-12.19,6.67-25.97,10.11-41.32,10.34ZM1056.45,441.53l-27.25.34-.37,161.25h24.18c9.64,0,17.78-3.07,24.38-9.2,6.6-6.15,9.91-13.49,9.91-22.06v-102.53c0-7.52-3.04-14.1-9.15-19.71-6.08-5.62-13.32-8.3-21.7-8.08Z"/>
  <path class="st0" d="M1210.87,646.91h-44.17c-1.03,0-1.52-.47-1.52-1.39v-40.32c0-.92.49-1.39,1.52-1.39h44.17c1.03,0,1.52.47,1.52,1.39v40.32c0,.92-.49,1.39-1.52,1.39Z"/>
  <path class="st0" d="M1290.28,646.91h-44.17c-1.28,0-1.91-.58-1.91-1.75l.39-244.47c0-.92.49-1.39,1.52-1.39h43.8c1.01,0,1.52.47,1.52,1.39l.37,244.47c0,1.16-.49,1.75-1.52,1.75Z"/>
  <path class="st0" d="M1371.77,646.91h-44.17c-1.03,0-1.52-.58-1.52-1.75l.76-244.47c0-.92.49-1.39,1.52-1.39h78.84c14.08,0,27.02,3.13,38.84,9.38,11.8,6.27,21.21,14.66,28.28,25.2,7.04,10.54,10.57,22.49,10.57,35.8,0,8.68-1.47,16.56-4.39,23.63-2.92,7.07-6.33,13.02-10.18,17.9-3.87,4.86-7.41,8.46-10.57,10.76,14.08,14.25,21.14,30.99,21.14,50.21l.37,72.97c0,1.16-.64,1.75-1.91,1.75h-44.17c-1.01,0-1.52-.36-1.52-1.05v-73.66c0-8.57-3.31-15.98-9.91-22.24-6.6-6.24-14.71-9.38-24.38-9.38h-25.7l-.39,104.59c0,1.16-.49,1.75-1.52,1.75ZM1407.2,441.87h-33.52v55.96h33.52c7.99,0,15.13-2.73,21.41-8.17,6.28-5.46,9.42-12.11,9.42-19.98s-3.04-14.05-9.12-19.56c-6.11-5.5-13.34-8.26-21.7-8.26Z"/>
</svg>